HIERARCHY
ROOT Hips
{
    OFFSET 0.000000 0.000000 0.000000
    CHANNELS 6 Xposition Yposition Zposition Zrotation Xrotation Yrotation
    JOINT Spine
    {
        OFFSET -0.000000 7.755141 0.000000
        CHANNELS 3 Zrotation Xrotation Yrotation
        JOINT Spine1
        {
            OFFSET -0.000000 20.093737 0.000000
            CHANNELS 3 Zrotation Xrotation Yrotation
            JOINT Neck
            {
                OFFSET -0.000000 21.985235 0.000000
                CHANNELS 3 Zrotation Xrotation Yrotation
                JOINT Head
                {
                    OFFSET -0.000000 14.659108 1.891498
                    CHANNELS 3 Zrotation Xrotation Yrotation
                    End Site
                    {
                        OFFSET -0.000000 18.914978 0.000000
                    }
                }
            }
            JOINT LeftShoulder
            {
                OFFSET 3.789246 18.853123 -0.208244
                CHANNELS 3 Zrotation Xrotation Yrotation
                JOINT LeftArm
                {
                    OFFSET 9.468541 0.000000 0.000000
                    CHANNELS 3 Zrotation Xrotation Yrotation
                    JOINT LeftForeArm
                    {
                        OFFSET 31.465202 0.000000 0.000000
                        CHANNELS 3 Zrotation Xrotation Yrotation
                        JOINT LeftHand
                        {
                            OFFSET 26.964474 0.000000 0.000000
                            CHANNELS 3 Zrotation Xrotation Yrotation
                            End Site
                            {
                                OFFSET 14.186234 0.000000 0.000000
                            }
                        }
                    }
                }
            }
            JOINT RightShoulder
            {
                OFFSET -3.772747 18.853123 -0.208244
                CHANNELS 3 Zrotation Xrotation Yrotation
                JOINT RightArm
                {
                    OFFSET -9.468541 0.000000 0.000000
                    CHANNELS 3 Zrotation Xrotation Yrotation
                    JOINT RightForeArm
                    {
                        OFFSET -31.465202 0.000000 0.000000
                        CHANNELS 3 Zrotation Xrotation Yrotation
                        JOINT RightHand
                        {
                            OFFSET -26.964474 0.000000 0.000000
                            CHANNELS 3 Zrotation Xrotation Yrotation
                            End Site
                            {
                                OFFSET -14.186234 0.000000 0.000000
                            }
                        }
                    }
                }
            }
        }
    }
    JOINT LeftUpLeg
    {
        OFFSET 9.457489 0.000000 0.000000
        CHANNELS 3 Zrotation Xrotation Yrotation
        JOINT LeftLeg
        {
            OFFSET -0.000000 -40.941395 0.000000
            CHANNELS 3 Zrotation Xrotation Yrotation
            JOINT LeftFoot
            {
                OFFSET -0.000000 -37.782906 0.000000
                CHANNELS 3 Zrotation Xrotation Yrotation
                JOINT LeftToeBase
                {
                    OFFSET -0.000000 -6.147367 14.186234
                    CHANNELS 3 Zrotation Xrotation Yrotation
                    End Site
                    {
                        OFFSET -0.000000 0.000000 3.782995
                    }
                }
            }
        }
    }
    JOINT RightUpLeg
    {
        OFFSET -9.457489 0.000000 0.000000
        CHANNELS 3 Zrotation Xrotation Yrotation
        JOINT RightLeg
        {
            OFFSET -0.000000 -40.941395 0.000000
            CHANNELS 3 Zrotation Xrotation Yrotation
            JOINT RightFoot
            {
                OFFSET -0.000000 -37.782906 0.000000
                CHANNELS 3 Zrotation Xrotation Yrotation
                JOINT RightToeBase
                {
                    OFFSET -0.000000 -6.147367 14.186234
                    CHANNELS 3 Zrotation Xrotation Yrotation
                    End Site
                    {
                        OFFSET -0.000000 0.000000 3.782995
                    }
                }
            }
        }
    }
}
MOTION
Frames:    7
Frame Time:    0.010000
43.376015    89.435753    60.182339    -0.607997    -1.075464    1.841250    -2.500219    -7.857369    -1.320231    1.403740    0.813113    -0.391872    3.014347    13.268632    -2.039979    2.318637    2.798279    -1.709385    -0.394953    4.146288    -2.226812    -73.998947    42.121983    -1.053901    4.844543    -9.652489    -18.081656    -27.021780    -10.774287    7.941331    -8.129880    -1.204358    -7.019377    27.277054    -4.951176    10.683401    -17.746080    -68.574501    19.859535    3.081358    -67.399689    0.116016    4.719491    2.815445    2.829654    -1.871527    7.646799    0.756386    0.008762    -9.530601    18.360443    0.000000    0.000000    0.000000    -1.713871    3.836372    1.704544    2.875675    4.326004    0.561458    0.600559    -8.693052    -11.337774    0.000000    0.000000    0.000000    
43.343609    89.447296    60.197830    -0.519601    -1.185187    1.992840    -2.517346    -7.735359    -1.282149    1.362395    0.695864    -0.378107    2.751570    13.448270    -1.966076    2.810669    2.750847    -1.768573    -0.372709    4.214215    -2.309202    -74.110977    42.060902    -1.002988    4.959569    -9.707758    -17.992163    -27.072762    -10.802980    7.874254    -8.091326    -1.216350    -7.002553    27.220049    -4.498084    10.763902    -20.371916    -68.998528    16.662809    2.095227    -67.906181    -2.209403    4.664155    2.896022    2.781835    -1.865618    7.651030    0.801826    -0.130066    -9.445350    18.245880    0.000000    0.000000    0.000000    -1.778850    3.996618    1.623593    2.903059    4.293370    0.513859    0.538559    -8.700772    -11.297092    0.000000    0.000000    0.000000    
43.286442    89.442673    60.232758    -0.495609    -1.118296    2.345553    -2.520783    -7.967687    -1.422988    1.323495    0.832985    -0.424670    2.710054    13.253639    -1.867108    2.897029    3.173665    -1.705019    -0.384391    4.169953    -2.317815    -74.025764    41.828541    -1.000235    4.733414    -9.591007    -18.033907    -26.862473    -10.725013    7.958634    -8.095268    -1.268350    -6.970234    27.297974    -4.904083    10.762001    -21.327305    -69.027908    15.037315    2.389930    -67.991287    -0.848799    4.695274    2.691589    2.626433    -1.830161    7.815254    0.769148    -0.142520    -9.454961    18.082367    0.000000    0.000000    0.000000    -1.742675    4.069595    1.451799    2.912102    4.159606    0.382941    0.503586    -8.710086    -11.334472    0.000000    0.000000    0.000000    
43.214737    89.451828    60.163898    -0.469268    -1.210206    2.346125    -2.793226    -7.331986    -1.014435    1.661921    -0.031693    -0.277018    3.146906    13.571239    -2.272997    2.564221    3.155794    -1.954088    -0.354414    4.543125    -2.776857    -74.044746    41.044613    -1.214290    4.542894    -9.275550    -17.883892    -26.612579    -10.455171    8.073303    -7.763886    0.133249    -8.481544    27.361502    -6.847877    12.488955    -20.813686    -68.434097    14.514441    0.967583    -67.431465    -1.266762    4.736121    2.590529    2.866316    -1.824926    8.112101    0.603836    -0.225339    -9.479214    18.036690    0.000000    0.000000    0.000000    -1.714664    4.064207    1.598898    2.914086    4.250982    0.293728    0.466103    -8.710804    -11.372104    0.000000    0.000000    0.000000    
43.148865    89.454506    60.144722    -0.443841    -1.207794    2.530514    -2.803588    -7.348475    -1.022436    1.652334    -0.015407    -0.279761    3.161832    13.608029    -2.268884    2.590976    3.110318    -1.948200    -0.338915    4.487728    -2.805951    -74.077530    40.992641    -1.201018    4.566141    -9.269069    -17.794323    -26.689844    -10.435377    7.992270    -7.777921    -0.222156    -8.036066    27.248730    -6.202812    11.941182    -23.584913    -68.760078    11.296787    0.027554    -67.886429    -2.097990    4.769280    2.414275    2.893910    -1.801696    8.370362    0.314915    -0.257484    -9.514391    18.146276    0.000000    0.000000    0.000000    -1.670264    4.084934    1.560338    2.896431    4.225211    0.179350    0.419433    -8.708724    -11.387421    0.000000    0.000000    0.000000    
43.088707    89.441368    60.179092    -0.409081    -1.122848    2.933720    -2.594182    -7.973552    -1.552080    1.337046    0.789518    -0.465613    2.844843    13.421181    -1.940727    2.690385    3.088700    -1.709021    -0.422134    4.232816    -2.231122    -73.956085    42.200794    -1.272542    5.119906    -9.874285    -17.483839    -27.323465    -10.899932    7.520557    -8.071666    -0.263835    -7.567697    27.966187    -8.245914    12.031664    -21.940659    -67.953957    12.352753    0.123127    -67.034851    -2.070806    4.795364    2.161095    2.725282    -1.770053    8.584825    0.309766    -0.341816    -9.569088    17.925539    0.000000    0.000000    0.000000    -1.638292    4.153776    1.352663    2.892933    4.083427    0.019261    0.383045    -8.754322    -11.375148    0.000000    0.000000    0.000000    
43.044640    89.440742    60.185516    -0.359264    -1.174853    3.063589    -2.583109    -8.024233    -1.535935    1.337287    0.919960    -0.461705    2.669449    13.415050    -1.853924    2.910548    3.060467    -1.697026    -0.484135    4.192945    -2.223488    -73.906502    42.174797    -1.268197    5.116296    -9.887936    -17.510067    -27.287951    -10.908690    7.513138    -8.017945    0.171151    -7.372848    28.032852    -9.249878    12.086146    -22.863922    -67.727867    10.914645    -0.676503    -66.867760    -2.576864    4.784090    2.110358    2.764112    -1.748387    8.734870    0.311039    -0.396358    -9.562417    17.768158    0.000000    0.000000    0.000000    -1.656203    4.240674    1.333937    2.926619    3.897418    -1.660037    0.633594    -8.577895    -9.845324    0.000000    0.000000    0.000000    
